<svg width="408" height="208" viewBox="0 0 408 208" fill="none" xmlns="http://www.w3.org/2000/svg">
<path d="M220.5 200.518L208.927 177.272C206.129 171.653 210.214 165.054 216.494 165.054H295.424C342.553 165.054 361.492 142.865 361.492 103.771C361.492 40.6431 302.368 41.1369 263.754 42.187C257.249 42.3638 253.19 49.5255 256.44 55.1608L288.118 110.116C291.365 115.752 287.297 122.789 280.791 122.789H254.095C251.032 122.789 248.208 121.133 246.713 118.46L188.833 14.9128C185.684 9.27837 189.758 2.33679 196.215 2.33679H295.424C377.482 2.33679 405.886 64.6763 405.886 103.771C405.886 149.205 393.202 199.921 310.152 205.204H228.07C224.861 205.204 221.929 203.389 220.5 200.518Z" fill="#3A72EC" stroke="#3A72EC" stroke-width="0.618807"/>
<path d="M14.4584 205.204H39.5185C42.5358 205.204 45.3246 203.597 46.8365 200.987L130.098 57.225C133.353 51.6038 141.471 51.6007 144.731 57.2193L196.271 146.049C197.784 148.656 200.571 150.261 203.586 150.261H230.651C237.145 150.261 241.215 143.25 237.993 137.614L163.098 6.59583C161.592 3.96214 158.79 2.33679 155.756 2.33679H119.101C116.046 2.33679 113.229 3.98393 111.731 6.64553L7.0884 192.608C3.91771 198.242 7.99105 205.204 14.4584 205.204Z" fill="#3A72EC" stroke="#3A72EC" stroke-width="0.618807"/>
<path d="M105.568 205.204H169.417C175.894 205.204 179.971 198.236 176.773 192.606C163.88 169.91 146.621 139.73 140.067 128.945C138.501 126.367 136.479 126.51 134.967 129.12L98.2502 192.517C94.9864 198.152 99.0544 205.204 105.568 205.204Z" fill="#3A72EC" stroke="#3A72EC" stroke-width="0.618807"/>
</svg>
