<svg width="128" height="128" viewBox="0 0 128 128" fill="none" xmlns="http://www.w3.org/2000/svg">
<g clip-path="url(#clip0_127_2)">
<path d="M76.2499 0.25C76.0469 0.418 75.8488 0.715469 75.6328 0.730469L66.7617 1.25391L56.2031 2.00391L49.8281 2.50391L38.3281 3.49609L34.5156 3.74609L25.6445 4.25781C22.2885 4.47981 18.9259 4.64844 15.5859 5.02344C9.15188 5.74644 3.74195 9.64512 2.49995 16.9531C2.38195 17.6331 2.26166 18.3238 2.26166 19.0078C2.24734 42.7448 2.24474 66.4818 2.25385 90.2188C2.25095 93.3932 3.22468 96.4916 5.04291 99.0938C8.13691 103.547 11.4955 107.812 14.7695 112.141C17.4335 115.664 20.0659 119.211 22.8359 122.652C24.8359 125.141 27.437 126.855 30.539 127.754C30.758 127.816 30.9454 127.973 31.1914 128.168C36.3244 128.25 41.4099 128.25 46.4999 128.25C46.7029 128.082 46.9021 127.781 47.1171 127.77L53.8046 127.496L66.746 126.746L74.6249 126.254L87.4414 125.5L95.4453 125C99.6763 124.746 103.914 124.574 108.137 124.223C110.844 124 113.601 123.785 116.211 123.094C121.16 121.781 124.305 118.418 125.723 113.504C126.035 112.426 126.227 111.273 126.23 110.152L126.234 29.7812C126.229 27.2273 125.367 24.8325 123.445 23.1445C120.859 20.8715 118.094 18.7804 115.289 16.7734C109.254 12.4444 103.215 8.11391 97.0312 4.00391C94.8982 2.58191 92.3318 1.81609 89.9648 0.746094C89.7538 0.652094 89.5545 0.526937 89.3085 0.335938L76.2499 0.25ZM84.0937 7.71289C87.7802 7.74795 91.0483 8.95128 94.1484 11.207L116.172 26.7266C118 28.0036 118.789 29.6017 118.785 31.8867L118.75 107.75V108.75C118.66 113.383 116.43 115.879 111.812 116.25L96.2304 117.254L64.9335 119.145L37.1249 120.801C33.0199 121.074 29.7891 119.793 27.5351 116.266C27.0701 115.531 26.4773 114.875 25.9453 114.184L13.5937 98.2578C10.9957 94.9378 9.66835 91.3283 9.69135 86.9883L9.75776 20.7461C9.75228 19.9147 9.82157 19.0846 9.96479 18.2656C10.5508 15.0576 12.5776 13.0578 15.8476 12.7578L32.0351 11.4961L57.8242 9.59375L82.4882 7.76953C83.0327 7.72653 83.5671 7.70788 84.0937 7.71289ZM83.1953 14.1055L73.1054 14.8086L25.1542 18.293C23.7052 18.398 22.2483 18.5037 20.8183 18.7617C20.3423 18.8477 19.7339 19.3325 19.5859 19.7695C19.4759 20.0795 19.9594 20.6991 20.3144 21.0391C20.9714 21.6681 21.7283 22.1947 22.4433 22.7617C24.1433 24.1017 25.9527 25.3247 27.5117 26.8047C30.4687 29.6127 33.9095 30.2616 37.8515 29.9766L68.8867 28.0312L102.297 26.0273L103.576 25.793C102.963 25.156 102.608 24.6682 102.144 24.3242C100.507 23.1152 98.8539 21.9276 97.1855 20.7617C94.6479 18.9777 92.103 17.2043 89.5507 15.4414C87.5077 14.3354 85.3823 13.9855 83.1953 14.1055ZM107.402 33.5234L84.332 34.8516L51.914 36.75L35.707 37.7227C33.641 37.8557 32.7065 38.7456 32.3945 40.7656C32.3125 41.2966 32.2968 41.8428 32.2968 42.3828L32.2929 68V101.613L32.3007 107.863C32.3547 110.66 33.7263 112.055 36.5273 112.215L38.6484 112.188L62.0898 110.805L106.855 108.246C109.645 108.09 110.934 106.867 111.195 104.102L111.23 102.602L111.234 38.125C111.234 37.75 111.247 37.375 111.223 37C111.056 34.437 109.953 33.3874 107.402 33.5234ZM100.105 45.5977C100.699 48.3787 100.047 49.4174 97.4453 49.9414C94.8723 50.4604 94.871 50.4615 94.871 53.0625L94.9023 97.5625C94.9063 98.5745 94.5983 99.1132 93.6953 99.4062C91.9613 99.9653 90.2621 100.685 88.4921 101.062C85.6641 101.673 83.1484 100.923 81.4414 98.4727C79.0461 95.0266 76.7111 91.5391 74.4374 88.0117L58.9687 63.8594L58.4687 63.1602V95.7227L65.1992 97.2578C64.9182 99.3478 63.7931 100.629 61.7031 100.973L56.8554 101.371L44.5468 102.078C44.0038 100.34 44.6945 98.9799 46.3085 98.5039L49.9492 97.4766V54.1836L44.6054 53.7266C43.9184 51.3086 45.4184 48.977 47.8984 48.75L57.9882 48.0117L63.4726 47.6406C64.3006 47.5506 64.7424 47.7769 65.1914 48.4609L78.0585 68.0664V68.0703C81.0505 72.6126 84.0375 77.1582 87.0195 81.707V51.5273L82.3124 51.0078C81.3634 50.9528 81.1982 50.5157 81.3242 49.7227C81.5812 48.0777 82.8626 46.664 84.5546 46.543L100.105 45.5977Z" fill="#3A72EC"/>
</g>
<defs>
<clipPath id="clip0_127_2">
<rect width="128" height="128" fill="white"/>
</clipPath>
</defs>
</svg>
