<svg width="128" height="128" viewBox="0 0 128 128" fill="none" xmlns="http://www.w3.org/2000/svg">
<g clip-path="url(#clip0_125_17)">
<path fill-rule="evenodd" clip-rule="evenodd" d="M90.767 127.126C91.7855 127.523 92.8749 127.707 93.9674 127.665C95.0598 127.623 96.1319 127.356 97.117 126.882L123.47 114.201C124.827 113.548 125.972 112.525 126.774 111.249C127.575 109.974 128 108.498 128 106.992V21.0091C128 19.5028 127.575 18.0269 126.774 16.7514C125.973 15.4759 124.827 14.4525 123.47 13.7991L97.117 1.12014C95.6279 0.403648 93.9529 0.167744 92.3238 0.44508C90.6947 0.722416 89.1921 1.49928 88.024 2.66814L37.574 48.6941L15.6 32.0131C14.6087 31.2605 13.3853 30.8786 12.1419 30.9338C10.8985 30.989 9.7137 31.4777 8.79299 32.3151L1.74499 38.7261C1.19574 39.2257 0.756806 39.8344 0.456266 40.5133C0.155727 41.1922 0.000200077 41.9264 -0.000364667 42.6688C-0.000929412 43.4113 0.15348 44.1457 0.452987 44.825C0.752493 45.5044 1.1905 46.1137 1.73899 46.6141L20.796 64.0001L1.73999 81.3871C1.1918 81.8876 0.754054 82.4969 0.454734 83.1762C0.155413 83.8555 0.00110405 84.5897 0.00166874 85.332C0.00223343 86.0743 0.15766 86.8082 0.458013 87.487C0.758366 88.1658 1.19704 88.7745 1.74599 89.2741L8.79399 95.6851C9.71448 96.5229 10.8993 97.0119 12.1427 97.0673C13.3861 97.1226 14.6097 96.7408 15.601 95.9881L37.575 79.3081L88.025 125.333C88.8051 126.115 89.7382 126.725 90.767 127.126ZM96.019 34.9431L57.74 64.0001L96.02 93.0581L96.019 34.9431Z" fill="#3A72EC"/>
</g>
<defs>
<clipPath id="clip0_125_17">
<rect width="128" height="128" fill="white"/>
</clipPath>
</defs>
</svg>
